<svg preserveAspectRatio="none" overflow="visible" style="display: block;" width="30" height="18" viewBox="0 0 30 18" fill="none" xmlns="http://www.w3.org/2000/svg">
<g id="Container">
<path id="Icon" d="M13.5 18C11 18 8.875 17.125 7.125 15.375C5.375 13.625 4.5 11.5 4.5 9C4.5 8.725 4.5125 8.45 4.5375 8.175C4.5625 7.9 4.6 7.625 4.65 7.35C4.525 7.4 4.375 7.4375 4.2 7.4625C4.025 7.4875 3.875 7.5 3.75 7.5C2.7 7.5 1.8125 7.1375 1.0875 6.4125C0.3625 5.6875 0 4.8 0 3.75C0 2.7 0.34375 1.8125 1.03125 1.0875C1.71875 0.3625 2.5875 0 3.6375 0C4.4625 0 5.20625 0.23125 5.86875 0.69375C6.53125 1.15625 7 1.75 7.275 2.475C8.1 1.725 9.04375 1.125 10.1062 0.675C11.1687 0.225 12.3 0 13.5 0H30V6H22.5V9C22.5 11.5 21.625 13.625 19.875 15.375C18.125 17.125 16 18 13.5 18V18M3.75 5.25C4.175 5.25 4.53125 5.10625 4.81875 4.81875C5.10625 4.53125 5.25 4.175 5.25 3.75C5.25 3.325 5.10625 2.96875 4.81875 2.68125C4.53125 2.39375 4.175 2.25 3.75 2.25C3.325 2.25 2.96875 2.39375 2.68125 2.68125C2.39375 2.96875 2.25 3.325 2.25 3.75C2.25 4.175 2.39375 4.53125 2.68125 4.81875C2.96875 5.10625 3.325 5.25 3.75 5.25V5.25M13.5 14.25C14.95 14.25 16.1875 13.7375 17.2125 12.7125C18.2375 11.6875 18.75 10.45 18.75 9C18.75 7.55 18.2375 6.3125 17.2125 5.2875C16.1875 4.2625 14.95 3.75 13.5 3.75C12.05 3.75 10.8125 4.2625 9.7875 5.2875C8.7625 6.3125 8.25 7.55 8.25 9C8.25 10.45 8.7625 11.6875 9.7875 12.7125C10.8125 13.7375 12.05 14.25 13.5 14.25V14.25M13.5 12C14.325 12 15.0312 11.7062 15.6187 11.1187C16.2062 10.5312 16.5 9.825 16.5 9C16.5 8.175 16.2062 7.46875 15.6187 6.88125C15.0312 6.29375 14.325 6 13.5 6C12.675 6 11.9688 6.29375 11.3813 6.88125C10.7938 7.46875 10.5 8.175 10.5 9C10.5 9.825 10.7938 10.5312 11.3813 11.1187C11.9688 11.7062 12.675 12 13.5 12V12M13.5 9V9V9V9V9V9V9V9V9V9" fill="#004AC6"/>
</g>
</svg>
